<svg width="36" height="28" viewBox="0 0 36 28" fill="none" xmlns="http://www.w3.org/2000/svg">
<path d="M22 4C22 6.20914 20.2091 8 18 8C15.7909 8 14 6.20914 14 4C14 1.79086 15.7909 0 18 0C20.2091 0 22 1.79086 22 4Z" fill="#FF9505"/>
<path d="M34.8389 15.5554C34.3389 15.5554 34.905 15.5263 34.9097 15.5393C35.3777 16.8386 35.1444 17.5512 32.6976 18.6353C30.2261 19.7303 26.5454 20.5122 22.3396 20.8356C18.1337 21.159 13.689 21.002 9.83145 20.3937C5.97395 19.7854 2.96617 18.7673 1.36722 17.5285C-0.231732 16.2897 -0.313073 14.9146 1.13832 13.6588C2.58971 12.4029 5.47509 11.3518 9.2581 10.7008C13.0411 10.0498 17.4644 9.84323 21.7057 10.1194C25.947 10.3956 29.7177 11.1359 32.317 12.2025L28.7167 13.0316C26.7709 12.2331 23.9483 11.679 20.7734 11.4723C17.5985 11.2655 14.2873 11.4202 11.4555 11.9075C8.62364 12.3948 6.46373 13.1816 5.37727 14.1217C4.2908 15.0618 4.35169 16.0911 5.54862 17.0185C6.74554 17.9458 8.99708 18.7079 11.8847 19.1633C14.7723 19.6186 18.0995 19.7362 21.2479 19.4941C24.3962 19.252 27.1515 18.6667 29.0016 17.847C30.7793 17.0594 32.1657 16.5337 31.948 15.6142C31.9392 15.5768 32.0142 16.0387 32 16L32.1737 15.5554L33.9014 15.9231L34.8389 15.524V15.5554Z" fill="#4180B4"/>
<path d="M15 12C15 10.3431 16.3432 9 18 9C19.6569 9 21 10.3431 21 12V26C21 27.1046 20.1046 28 19 28H17C15.8954 28 15 27.1046 15 26V12Z" fill="#FF9505"/>
<path d="M18.1084 21C22.8883 21 27.4725 20.4098 30.8524 19.3593C33.5886 18.5089 35.3542 17.5691 35.9274 16.3276C36.0778 15.9253 35.5302 15.678 34.9097 15.5393C34.8862 15.5341 34.8626 15.529 34.8389 15.524C34.5 15.4533 34.1466 15.4139 33.8783 15.3985C33.4128 15.3988 32.7038 15.4374 32.1737 15.5554C32.0939 15.5732 32.0182 15.5927 31.948 15.6142C31.785 15.6641 31.6515 15.7244 31.5656 15.7969C31.5405 15.8803 31.5075 15.9633 31.4668 16.0457C31.0339 16.9222 29.7263 17.7393 27.6831 18.3743C25.1437 19.1636 21.6996 19.607 18.1084 19.607C14.5171 19.607 11.073 19.1636 8.53361 18.3743C5.99423 17.5851 4.56763 16.5146 4.56763 15.3985H0.0855408C0.0855415 16.8841 1.98437 18.3089 5.3643 19.3593C8.74423 20.4098 13.3284 21 18.1084 21Z" fill="#4180B4"/>
<path fill-rule="evenodd" clip-rule="evenodd" d="M32.1737 15.5554L32 16C32.0142 16.0387 31.9392 15.5768 31.948 15.6142C32.0182 15.5927 32.0939 15.5732 32.1737 15.5554Z" fill="#4180B4"/>
<path fill-rule="evenodd" clip-rule="evenodd" d="M34.9097 15.5393L34.8389 15.5554V15.524C34.8626 15.529 34.8862 15.5341 34.9097 15.5393Z" fill="#4180B4"/>
</svg>
